<svg width="70" height="70" viewBox="0 0 70 70" fill="none" xmlns="http://www.w3.org/2000/svg">
<rect width="70" height="70" rx="9" fill="#34495E"/>
<path d="M16.0205 26.517V45.1609C16.0205 45.5049 16.193 45.8239 16.4824 46.0124L21.4509 49.2501C21.6163 49.358 21.8082 49.4159 22.0051 49.4159C22.2276 49.4159 22.4472 49.341 22.6234 49.2058L23.5462 48.6261V50.5272C23.5462 50.8722 23.7182 51.1903 24.0076 51.3788L33.8396 57.7875C34.0046 57.8955 34.1964 57.952 34.3948 57.952C34.6248 57.952 34.851 57.8733 35.0301 57.7291L35.0626 57.7046L44.9978 51.4697C45.2966 51.2826 45.4748 50.9608 45.4748 50.6092V48.4305L46.3801 48.9989C46.5742 49.1459 46.7934 49.2204 47.0158 49.2204C47.2133 49.2204 47.4046 49.1633 47.571 49.0554L52.5386 45.8173C52.828 45.6293 53 45.3107 53 44.9658V29.0256C53 28.6123 52.7535 28.2433 52.3713 28.0859L47.3961 25.1466C47.2397 25.0542 47.0606 25.0047 46.8782 25.0047C46.6916 25.0047 46.5078 25.0561 46.3476 25.1541L45.4743 25.6895V19.0606C45.4743 18.9056 45.4375 18.7496 45.3692 18.6096L45.348 18.5686C45.2632 18.3971 45.1322 18.2538 44.9677 18.1534L35.1964 12.1655C35.0366 12.0675 34.8529 12.0156 34.6658 12.0156C34.4839 12.0156 34.3043 12.0646 34.1478 12.1575L24.2111 18.0351C23.796 18.2071 23.5462 18.5714 23.5462 18.9786V23.1809L22.6729 22.646C22.5122 22.548 22.3294 22.4962 22.1413 22.4962C21.9604 22.4962 21.7808 22.5452 21.6244 22.6375L16.6355 25.5877C16.2543 25.7639 16.0205 26.124 16.0205 26.517ZM45.4748 46.241V28.0727L45.611 27.9893L46.8702 27.2197L47.3754 27.5142V27.5119L47.7062 27.6914L50.9674 29.6198V44.4172L46.7458 47.0582L45.6091 46.3475L45.4748 46.241ZM34.8887 55.4128L34.9905 14.4238L43.4422 19.6016V50.0465L34.8887 55.4128ZM25.5788 19.5875L34.1153 14.5388L34.014 55.4741L30.1209 52.9358L27.4554 51.1983L25.5788 49.9749V19.5875ZM18.0531 27.1113L21.6446 24.9873V24.9944L22.106 24.713L22.5193 24.9548V24.9449L22.853 25.1404L23.5457 25.5655V46.2019L21.959 47.1567L18.0526 44.6104L18.0531 27.1113Z" fill="#9ECFFF"/>
<path d="M26.2949 37.0108C26.2949 36.7097 26.54 36.4853 26.8402 36.5122L27.9693 36.614C28.2695 36.6408 28.5146 36.909 28.5146 37.2097V39.976C28.5146 40.2767 28.2747 40.4675 27.9816 40.3997L26.8279 40.1334C26.5348 40.0656 26.2949 39.7644 26.2949 39.4633V37.0108Z" fill="#9ECFFF"/>
<path d="M26.2949 29.9169C26.2949 29.6157 26.5362 29.3231 26.8317 29.2665L27.9773 29.046C28.2733 28.9894 28.5146 29.1892 28.5146 29.4899V32.2558C28.5146 32.5564 28.2691 32.8152 27.9679 32.8307L26.8416 32.8887C26.5409 32.9042 26.2949 32.6705 26.2949 32.3693V29.9169Z" fill="#9ECFFF"/>
<path d="M28.0162 21.4636C28.2905 21.3387 28.5143 21.4834 28.5143 21.7841V24.5306C28.5143 24.8318 28.2806 25.1555 27.995 25.2507L26.813 25.6452C26.5275 25.7404 26.2937 25.5721 26.2937 25.271V22.794C26.2937 22.4933 26.518 22.1451 26.7918 22.0202L28.0162 21.4636Z" fill="#9ECFFF"/>
<path d="M32.1772 41.3041C32.4717 41.3677 32.712 41.6665 32.712 41.9667V45.292C32.712 45.5926 32.4807 45.7552 32.1979 45.6525L30.7412 45.1237C30.4584 45.021 30.2271 44.6911 30.2271 44.3899V41.4313C30.2271 41.1307 30.4683 40.9365 30.7624 41.0001L32.1772 41.3041Z" fill="#9ECFFF"/>
<path d="M32.1759 28.2608C32.4714 28.2024 32.7126 28.4003 32.7126 28.7015V32.0267C32.7126 32.3274 32.4671 32.5866 32.166 32.6031L30.7503 32.6776C30.4491 32.6931 30.2036 32.4598 30.2036 32.1592V29.2001C30.2036 28.8994 30.4449 28.6049 30.7404 28.5464L32.1759 28.2608Z" fill="#9ECFFF"/>
<path d="M42.6838 37.0108C42.6838 36.7097 42.4387 36.4853 42.139 36.5122L41.0099 36.614C40.7097 36.6408 40.4646 36.909 40.4646 37.2097V39.976C40.4646 40.2767 40.7045 40.4675 40.9981 40.3997L42.1513 40.1334C42.4444 40.0656 42.6843 39.7644 42.6843 39.4633L42.6838 37.0108Z" fill="#9ECFFF"/>
<path d="M38.4414 33.2409C38.4414 32.9403 38.1958 32.6811 37.8952 32.6655L36.7684 32.6066C36.4677 32.5906 36.2222 32.8239 36.2222 33.125V36.4654C36.2222 36.7665 36.4672 36.9927 36.767 36.9677L37.8961 36.8758C38.1963 36.8513 38.4409 36.5855 38.4409 36.2844L38.4414 33.2409Z" fill="#9ECFFF"/>
<path d="M42.704 26.3252C42.704 26.0241 42.4684 25.706 42.1805 25.6178L41.008 25.2587C40.7205 25.1706 40.4844 25.345 40.4844 25.6456V28.4275C40.4844 28.7287 40.7276 29.0166 41.024 29.0685L42.1654 29.2669C42.4623 29.3187 42.705 29.1142 42.705 28.8135V26.3252H42.704Z" fill="#9ECFFF"/>
<path d="M36.7159 19.4853C36.4421 19.3609 36.2178 19.5051 36.2178 19.8062V23.1352C36.2178 23.4359 36.4515 23.7601 36.7366 23.8553L37.92 24.2498C38.2051 24.345 38.4393 24.1763 38.4393 23.8761V20.8161C38.4393 20.515 38.2145 20.1672 37.9412 20.0418L36.7159 19.4853Z" fill="#9ECFFF"/>
<path d="M36.7343 45.6767C36.4501 45.7771 36.2178 46.1046 36.2178 46.4058V49.7306C36.2178 50.0317 36.4393 50.1698 36.7093 50.0374L38.2108 49.3027C38.4813 49.1712 38.7023 48.8163 38.7023 48.5152V45.5325C38.7023 45.2314 38.4704 45.0669 38.1867 45.1668L36.7343 45.6767Z" fill="#9ECFFF"/>
</svg>
