<svg width="253" height="39" viewBox="0 0 253 39" fill="none" xmlns="http://www.w3.org/2000/svg">
<path d="M32.6064 21.6725C32.9304 22.5363 32.9304 25.6676 32.6064 26.5584H19.9192V7.9055C21.1339 7.47359 25.1021 7.47359 26.3438 7.9055V21.6725H32.6064ZM49.9529 7.93249L55.3517 26.5584C54.083 27.0173 49.8449 27.0173 48.3602 26.5584L47.5774 22.6443H43.0424L42.2595 26.5584C40.8019 26.9904 36.5368 26.9904 35.322 26.5584L40.7479 7.93249C42.5295 7.4466 48.1443 7.4466 49.9529 7.93249ZM43.8522 18.7841H46.8215L45.5258 12.3595H45.1479L43.8522 18.7841ZM66.3005 7.33862C69.0539 7.33862 73.103 7.85151 73.5889 8.01348C73.9129 9.68711 73.8049 11.1988 73.103 12.7374C71.5104 12.4945 68.568 12.2246 66.7594 12.2246C65.7606 12.2246 65.2477 12.3325 65.2477 13.0344C65.2477 13.7632 65.6526 13.7902 66.5704 14.1951L69.2969 15.3559C72.6171 16.7866 74.3718 18.0013 74.3718 21.6185C74.3718 26.4775 71.1595 27.1793 65.6796 27.1523C63.7631 27.1523 62.4943 27.1523 58.7422 26.5584C58.4182 24.8578 58.5532 23.3731 59.2011 21.8345C61.4686 22.2394 64.8968 22.3474 66.3005 22.2394C66.9214 22.1584 67.6502 22.1044 67.6502 21.2406C67.6502 20.8357 67.4073 20.6467 66.5435 20.2958L63.3581 19.0001C60.1188 17.6774 58.4722 15.8688 58.4722 12.9804C58.4722 8.39139 61.1176 7.33862 66.3005 7.33862ZM94.1207 7.93249C94.4446 8.8233 94.4446 11.9546 94.1207 12.8184H89.2887V26.1805C88.02 26.6394 84.0788 26.6394 82.8641 26.1805V12.8184H77.9512C77.5733 11.9546 77.5733 8.8233 77.9512 7.93249H94.1207Z" fill="#34495E"/>
<path d="M104.838 10.723V24.5092C104.838 24.7636 104.966 24.9995 105.18 25.1389L108.854 27.5329C108.976 27.6127 109.118 27.6556 109.263 27.6556C109.428 27.6556 109.59 27.6002 109.721 27.5002L110.403 27.0715V28.4773C110.403 28.7324 110.53 28.9676 110.744 29.107L118.014 33.846C118.136 33.9258 118.278 33.9676 118.425 33.9676C118.595 33.9676 118.762 33.9094 118.895 33.8028L118.919 33.7846L126.265 29.1743C126.486 29.0359 126.618 28.7979 126.618 28.5379V26.9269L127.287 27.3472C127.431 27.4559 127.593 27.511 127.758 27.511C127.904 27.511 128.045 27.4688 128.168 27.389L131.841 24.9946C132.055 24.8556 132.183 24.62 132.183 24.3649V12.578C132.183 12.2724 132 11.9995 131.718 11.8831L128.039 9.70965C127.923 9.64135 127.791 9.60476 127.656 9.60476C127.518 9.60476 127.382 9.64275 127.263 9.71523L126.618 10.1111V5.2094C126.618 5.09475 126.591 4.97941 126.54 4.87591L126.524 4.84559C126.462 4.71875 126.365 4.61281 126.243 4.53858L119.018 0.110816C118.9 0.0383327 118.764 0 118.625 0C118.491 0 118.358 0.0362418 118.242 0.104892L110.895 4.45111C110.588 4.57831 110.403 4.84768 110.403 5.14877V8.25615L109.757 7.86063C109.638 7.78814 109.503 7.74981 109.364 7.74981C109.23 7.74981 109.098 7.78605 108.982 7.85436L105.293 10.0358C105.011 10.1662 104.838 10.4324 104.838 10.723ZM126.618 25.3079V11.8734L126.719 11.8117L127.65 11.2426L128.023 11.4604V11.4587L128.268 11.5914L130.68 13.0174V23.9593L127.558 25.9122L126.717 25.3867L126.618 25.3079ZM118.79 32.09L118.865 1.78072L125.115 5.60946V28.1219L118.79 32.09ZM111.906 5.599L118.218 1.86575L118.143 32.1353L115.265 30.2584L113.294 28.9735L111.906 28.0689V5.599ZM106.341 11.1625L108.997 9.59187V9.5971L109.338 9.38905L109.644 9.56782V9.56051L109.89 9.70512L110.403 10.0195V25.279L109.229 25.985L106.341 24.1022L106.341 11.1625Z" fill="#34495E"/>
<path d="M112.436 18.4826C112.436 18.2599 112.617 18.0941 112.839 18.1139L113.674 18.1892C113.896 18.2091 114.077 18.4073 114.077 18.6297V20.6752C114.077 20.8976 113.9 21.0387 113.683 20.9885L112.83 20.7916C112.613 20.7414 112.436 20.5188 112.436 20.2961V18.4826Z" fill="#34495E"/>
<path d="M112.436 13.237C112.436 13.0143 112.614 12.7979 112.832 12.7561L113.68 12.593C113.898 12.5512 114.077 12.699 114.077 12.9213V14.9665C114.077 15.1888 113.895 15.3801 113.673 15.3916L112.84 15.4345C112.617 15.446 112.436 15.2732 112.436 15.0505V13.237Z" fill="#34495E"/>
<path d="M113.708 6.98634C113.911 6.89399 114.077 7.00098 114.077 7.22331V9.25424C114.077 9.47692 113.904 9.71632 113.693 9.78671L112.819 10.0784C112.607 10.1488 112.435 10.0244 112.435 9.8017V7.9701C112.435 7.74777 112.6 7.49024 112.803 7.39789L113.708 6.98634Z" fill="#34495E"/>
<path d="M116.785 21.6573C117.003 21.7043 117.181 21.9253 117.181 22.1472V24.6061C117.181 24.8284 117.009 24.9487 116.8 24.8727L115.723 24.4817C115.514 24.4057 115.343 24.1618 115.343 23.9391V21.7514C115.343 21.529 115.521 21.3855 115.739 21.4325L116.785 21.6573Z" fill="#34495E"/>
<path d="M116.784 12.0124C117.003 11.9692 117.181 12.1156 117.181 12.3383V14.7971C117.181 15.0195 116.999 15.2111 116.777 15.2233L115.73 15.2784C115.507 15.2899 115.326 15.1174 115.326 14.8951V12.707C115.326 12.4846 115.504 12.2668 115.723 12.2236L116.784 12.0124Z" fill="#34495E"/>
<path d="M124.554 18.4826C124.554 18.2599 124.373 18.0941 124.151 18.1139L123.316 18.1892C123.094 18.2091 122.913 18.4073 122.913 18.6297V20.6752C122.913 20.8976 123.09 21.0387 123.308 20.9885L124.16 20.7916C124.377 20.7414 124.554 20.5188 124.554 20.2961L124.554 18.4826Z" fill="#34495E"/>
<path d="M121.417 15.6951C121.417 15.4728 121.236 15.2811 121.013 15.2696L120.18 15.226C119.958 15.2142 119.776 15.3867 119.776 15.6094V18.0794C119.776 18.3021 119.957 18.4693 120.179 18.4509L121.014 18.3829C121.236 18.3648 121.417 18.1682 121.417 17.9456L121.417 15.6951Z" fill="#34495E"/>
<path d="M124.569 10.5812C124.569 10.3585 124.395 10.1233 124.182 10.0581L123.315 9.79255C123.102 9.72739 122.928 9.85632 122.928 10.0787V12.1357C122.928 12.3584 123.108 12.5713 123.327 12.6097L124.171 12.7564C124.39 12.7947 124.57 12.6435 124.57 12.4211V10.5812H124.569Z" fill="#34495E"/>
<path d="M120.141 5.52342C119.939 5.43142 119.773 5.53806 119.773 5.76074V8.22239C119.773 8.44472 119.946 8.68447 120.157 8.75486L121.032 9.04654C121.242 9.11693 121.416 8.99218 121.416 8.7702V6.50753C121.416 6.28485 121.249 6.02767 121.047 5.93497L120.141 5.52342Z" fill="#34495E"/>
<path d="M120.155 24.8907C119.945 24.965 119.773 25.2072 119.773 25.4298V27.8884C119.773 28.111 119.937 28.2131 120.136 28.1152L121.247 27.5719C121.447 27.4747 121.61 27.2123 121.61 26.9896V24.7841C121.61 24.5614 121.439 24.4398 121.229 24.5137L120.155 24.8907Z" fill="#34495E"/>
<path d="M169.689 7.71131L167.012 26.7597C164.831 27.2842 160.497 27.2842 158.316 26.7597L156.88 18.533L156.245 12.1559H156.024L155.445 18.5054L154.147 26.7597C151.994 27.2842 147.439 27.2842 145.285 26.7597L142.58 7.71131C144.126 7.21439 147.549 7.21439 149.344 7.71131L150.061 21.9286H150.475L150.779 18.4226L152.38 8.07019C154.12 7.54567 158.178 7.54567 159.917 8.07019L161.518 18.4778L161.849 21.9286H162.236L162.954 7.71131C164.72 7.21439 168.144 7.21439 169.689 7.71131ZM187.043 7.71131L192.564 26.7597C191.267 27.229 186.932 27.229 185.414 26.7597L184.613 22.7567H179.976L179.175 26.7597C177.684 27.2014 173.322 27.2014 172.08 26.7597L177.629 7.71131C179.451 7.21439 185.193 7.21439 187.043 7.71131ZM180.804 18.809H183.84L182.515 12.2387H182.129L180.804 18.809ZM214.417 7.71131L209.31 26.7597C207.516 27.2566 201.774 27.2566 199.924 26.7597L194.789 7.71131C196.059 7.26961 200.421 7.26961 201.884 7.71131L204.424 22.2874H204.81L207.322 7.71131C208.786 7.242 213.147 7.242 214.417 7.71131ZM225.255 21.7629H232.516C232.902 22.6463 232.902 25.8487 232.516 26.7597H218.685V7.71131H232.516C232.902 8.62232 232.902 11.8246 232.516 12.708H225.255V15.165H231.053C231.439 15.8 231.439 18.1465 231.053 18.7538H225.255V21.7629Z" fill="#34495E"/>
</svg>
